<svg id="Layer_1" data-name="Layer 1" xmlns="http://www.w3.org/2000/svg" viewBox="0 0 504.83 69.19"><defs><style>.cls-1{fill:#cc242a;}.cls-2{fill:#a62024;}</style></defs><title>LT_landscape_rgb</title><path class="cls-1" d="M210.57,283.28h11l-6.2,33.48h12.77l-1.79,9.69h-23.8Z" transform="translate(-143.41 -257.26)"/><path class="cls-1" d="M241.6,283.28h11l-8,43.17h-11Z" transform="translate(-143.41 -257.26)"/><path class="cls-1" d="M260.44,283.28h13.3c7.29,0,10.55.7,13.05,4.2,1.56,2,1.71,4.61,1.25,7.12a12.32,12.32,0,0,1-6.63,8.69c6.49,2.45,5.59,8.22,5.26,10a15.4,15.4,0,0,1-5.71,9.39c-4.58,3.33-7.52,3.74-14.81,3.74H252.44Zm4.35,33.48H270c1.4,0,5.48,0,6.25-4.14.69-3.73-3-3.73-4.79-3.73h-5.2ZM268,299.67h3.91c1.52,0,4.67,0,5.31-3.44.6-3.26-2.37-3.26-4.07-3.26h-3.9Z" transform="translate(-143.41 -257.26)"/><path class="cls-1" d="M298.18,283.28h24l-1.8,9.69H307l-1.25,6.7h13l-1.79,9.69h-13l-1.37,7.4H316l-1.79,9.69h-24Z" transform="translate(-143.41 -257.26)"/><path class="cls-1" d="M329,283.28h13.65c7.59,0,10.33.94,12.73,3.09,3,2.8,3.95,7.35,3.13,11.79-.92,5-4.84,12.25-13.26,13.59l9,14.7h-12.6l-7.39-13.94h-.11l-2.59,13.94H321Zm6.54,21.7h3.91c6.47,0,8-4.08,8.38-6.18.72-3.91-1.78-5.83-6-5.83h-4Z" transform="translate(-143.41 -257.26)"/><path class="cls-1" d="M371.93,293h-8.52l1.8-9.69h28L391.41,293H383l-6.2,33.48h-11Z" transform="translate(-143.41 -257.26)"/><path class="cls-1" d="M402.05,310.76l-7.79-27.48h11.95l3.21,17.33,9.69-17.33H431l-17.87,27.48-2.91,15.69h-11Z" transform="translate(-143.41 -257.26)"/><path class="cls-1" d="M459.72,293h-8.51l1.79-9.69h28L479.21,293h-8.46l-6.21,33.48h-11Z" transform="translate(-143.41 -257.26)"/><path class="cls-1" d="M488.35,283.28H502c7.59,0,10.33.94,12.73,3.09,3,2.8,3.94,7.35,3.12,11.79-.92,5-4.83,12.25-13.25,13.59l9,14.7H501l-7.39-13.94h-.12l-2.58,13.94H480.35Zm6.54,21.7h3.91c6.47,0,8-4.08,8.38-6.18.72-3.91-1.78-5.83-6-5.83h-4Z" transform="translate(-143.41 -257.26)"/><path class="cls-1" d="M530.33,320.21l-3.43,6.24H515.06l25.33-43.17h8.69l9.15,43.17h-12l-.94-6.24Zm4.66-8.75h9l-1.7-14.76h-.17Z" transform="translate(-143.41 -257.26)"/><path class="cls-1" d="M568.69,283.28l3.08,30.28h.12l14.36-30.28h11.37l-22.46,43.17H563.78l-6.41-43.17Z" transform="translate(-143.41 -257.26)"/><path class="cls-1" d="M599.55,283.28h24L621.73,293H608.31l-1.24,6.7h13l-1.8,9.69h-13l-1.37,7.4h13.42l-1.8,9.69h-24Z" transform="translate(-143.41 -257.26)"/><path class="cls-1" d="M630.64,283.28h11l-6.21,33.48h12.77l-1.79,9.69h-23.8Z" transform="translate(-143.41 -257.26)"/><path class="cls-1" d="M175.12,293.61l-7.23,1.15a7.07,7.07,0,0,1,1.1,3.79,7,7,0,1,1-13.91,0,6.8,6.8,0,0,1,.24-1.76l-7.17,1.15c0,.43-.05.86-.05,1.3a10.83,10.83,0,0,0,1,4.37q4.91,10.4,9.82,20.8a3.54,3.54,0,0,0,.62.95,3.48,3.48,0,0,0,5.74-1c3.14-6.67,6.24-13.37,9.44-20a13.93,13.93,0,0,0,.43-10.7Z" transform="translate(-143.41 -257.26)"/><path class="cls-2" d="M144.43,292.74h32.83a1,1,0,0,1,1,1v0a.89.89,0,0,1-.89.89h-33a.89.89,0,0,1-.89-.89v0A1,1,0,0,1,144.43,292.74Z" transform="translate(-187.72 -228.21) rotate(-9.08)"/><path class="cls-2" d="M176.75,289.74,144.12,295c-.46.07-.62,0-.7-.46h0c-.08-.52.24-.55.74-.63l32.51-5.2c.49-.08,1-.07,1.06.45V289C177.8,289.51,177.21,289.67,176.75,289.74Z" transform="translate(-143.41 -257.26)"/><path class="cls-2" d="M163.28,257.26s-8.49,3.66,1.73,14.19c0,0,.83.94,1.82,2.12a14.86,14.86,0,0,1,1.62,2.39c1.37,2.76,3.45,10.39-5.87,13.92,0,0,8.49-3.66-1.73-14.19,0,0-.83-.95-1.82-2.12a14.86,14.86,0,0,1-1.62-2.39C156,268.42,154,260.79,163.28,257.26Z" transform="translate(-143.41 -257.26)"/><path class="cls-2" d="M148.83,278c0-3.92,3.6-8.16,3.63-8.2-1.2,3.76,1.1,7.36,1.75,8.18.95,1.12,1.74,2,1.74,2,4.39,4.52,5.17,7.72,4.69,9.87C155.64,289.8,148.84,285.89,148.83,278Z" transform="translate(-143.41 -257.26)"/><path class="cls-1" d="M156.88,279.16l-1.7-2a9.43,9.43,0,0,1-1.65-3.73,11.46,11.46,0,0,1,1.43-6.69c0,.35.06.7.11,1.05a13.41,13.41,0,0,0,1.22,3.92,15.48,15.48,0,0,0,1.76,2.61v0h0c1,1.17,1.83,2.13,1.84,2.14l0,0,0,0c3.48,3.59,5.07,6.74,4.6,9.1a8.26,8.26,0,0,1-1.53,3l-.42.4c-.19.18-.41.36-.63.54C162.37,286.58,160.66,283.06,156.88,279.16Z" transform="translate(-143.41 -257.26)"/></svg>